<?xml version="1.0" encoding="UTF-8" standalone="no"?>
<!DOCTYPE svg PUBLIC "-//W3C//DTD SVG 1.1//EN"
 "http://www.w3.org/Graphics/SVG/1.1/DTD/svg11.dtd">
<!-- Generated by graphviz version 11.0.0 (20240428.1522)
 -->
<!-- Title: G Pages: 1 -->
<svg width="169pt" height="68pt"
 viewBox="0.00 0.00 169.45 67.70" xmlns="http://www.w3.org/2000/svg" xmlns:xlink="http://www.w3.org/1999/xlink">
<g id="graph0" class="graph" transform="scale(1 1) rotate(0) translate(21.6 46.1)">
<title>G</title>
<polygon fill="#111111" stroke="none" points="-21.6,21.6 -21.6,-46.1 147.85,-46.1 147.85,21.6 -21.6,21.6"/>
<!-- Autocomplete.tsx -->
<g id="node1" class="node">
<title>Autocomplete.tsx</title>
<path fill="none" stroke="#cfffac" d="M118.08,-24.5C118.08,-24.5 8.17,-24.5 8.17,-24.5 4.08,-24.5 0,-20.42 0,-16.33 0,-16.33 0,-8.17 0,-8.17 0,-4.08 4.08,0 8.17,0 8.17,0 118.08,0 118.08,0 122.17,0 126.25,-4.08 126.25,-8.17 126.25,-8.17 126.25,-16.33 126.25,-16.33 126.25,-20.42 122.17,-24.5 118.08,-24.5"/>
<text text-anchor="middle" x="63.12" y="-7.2" font-family="Arial" font-size="14.00" fill="#cfffac">Autocomplete.tsx</text>
</g>
</g>
</svg>
